<svg xmlns="http://www.w3.org/2000/svg" xmlns:xlink="http://www.w3.org/1999/xlink" width="193" zoomAndPan="magnify" viewBox="0 0 144.75 39.749999" height="53" preserveAspectRatio="xMidYMid meet" version="1.0"><defs><g/></defs><g fill="#003479" fill-opacity="1"><g transform="translate(1.215394, 30.59713)"><g><path d="M 0 0 C 0.570312 -0.757812 1.113281 -1.5625 1.625 -2.40625 C 2.132812 -3.257812 2.648438 -4.238281 3.171875 -5.34375 C 3.691406 -6.457031 4.269531 -7.765625 4.90625 -9.265625 C 5.539062 -10.773438 6.265625 -12.554688 7.078125 -14.609375 L 11.390625 -25.28125 L 16.359375 -25.859375 C 16.359375 -25.566406 16.476562 -24.945312 16.71875 -24 C 16.957031 -23.0625 17.289062 -21.882812 17.71875 -20.46875 C 18.144531 -19.0625 18.660156 -17.503906 19.265625 -15.796875 C 19.867188 -14.085938 20.546875 -12.3125 21.296875 -10.46875 C 22.046875 -8.625 22.847656 -6.804688 23.703125 -5.015625 C 24.566406 -3.222656 25.472656 -1.550781 26.421875 0 L 16.28125 0 C 16.582031 -1 16.664062 -2.25 16.53125 -3.75 C 16.40625 -5.25 16.132812 -6.820312 15.71875 -8.46875 L 5.9375 -8.46875 C 5.519531 -6.476562 5.503906 -4.816406 5.890625 -3.484375 C 6.285156 -2.160156 7.113281 -1 8.375 0 Z M 6.140625 -9.34375 L 15.484375 -9.34375 C 15.066406 -10.863281 14.570312 -12.351562 14 -13.8125 C 13.4375 -15.269531 12.847656 -16.601562 12.234375 -17.8125 C 11.617188 -19.019531 11.007812 -20.003906 10.40625 -20.765625 L 8.046875 -14.890625 C 7.628906 -13.828125 7.257812 -12.835938 6.9375 -11.921875 C 6.613281 -11.003906 6.347656 -10.144531 6.140625 -9.34375 Z M 6.140625 -9.34375 "/></g></g></g><g fill="#003479" fill-opacity="1"><g transform="translate(26.835067, 30.59713)"><g><path d="M 0.859375 0 C 1.285156 -1.925781 1.609375 -3.960938 1.828125 -6.109375 C 2.046875 -8.265625 2.15625 -10.441406 2.15625 -12.640625 C 2.15625 -14.835938 2.046875 -17.007812 1.828125 -19.15625 C 1.609375 -21.3125 1.285156 -23.351562 0.859375 -25.28125 L 21.453125 -25.28125 C 21.242188 -24.300781 21.0625 -23.363281 20.90625 -22.46875 C 20.757812 -21.582031 20.640625 -20.664062 20.546875 -19.71875 C 20.453125 -18.769531 20.363281 -17.726562 20.28125 -16.59375 C 19.75 -18.394531 18.898438 -19.875 17.734375 -21.03125 C 16.578125 -22.1875 15.222656 -23.039062 13.671875 -23.59375 C 12.117188 -24.15625 10.46875 -24.4375 8.71875 -24.4375 C 8.414062 -22.882812 8.171875 -21.226562 7.984375 -19.46875 C 7.796875 -17.71875 7.679688 -15.738281 7.640625 -13.53125 C 7.640625 -13.21875 7.78125 -13.0625 8.0625 -13.0625 L 10.171875 -13.0625 C 11.046875 -13.0625 11.847656 -13.171875 12.578125 -13.390625 C 13.304688 -13.609375 14.019531 -14 14.71875 -14.5625 C 15.414062 -15.132812 16.132812 -15.953125 16.875 -17.015625 C 16.800781 -15.878906 16.75 -14.863281 16.71875 -13.96875 C 16.6875 -13.082031 16.6875 -12.195312 16.71875 -11.3125 C 16.75 -10.4375 16.800781 -9.421875 16.875 -8.265625 C 16.15625 -9.304688 15.441406 -10.109375 14.734375 -10.671875 C 14.023438 -11.242188 13.300781 -11.644531 12.5625 -11.875 C 11.820312 -12.101562 11.023438 -12.21875 10.171875 -12.21875 L 8.0625 -12.21875 C 7.757812 -12.21875 7.609375 -12.078125 7.609375 -11.796875 C 7.609375 -10.179688 7.703125 -8.414062 7.890625 -6.5 C 8.085938 -4.59375 8.363281 -2.710938 8.71875 -0.859375 C 10.445312 -0.859375 12.09375 -1.140625 13.65625 -1.703125 C 15.21875 -2.273438 16.578125 -3.132812 17.734375 -4.28125 C 18.898438 -5.4375 19.75 -6.90625 20.28125 -8.6875 C 20.363281 -7.550781 20.453125 -6.507812 20.546875 -5.5625 C 20.640625 -4.613281 20.757812 -3.695312 20.90625 -2.8125 C 21.0625 -1.925781 21.242188 -0.988281 21.453125 0 Z M 0.859375 0 "/></g></g></g><g fill="#003479" fill-opacity="1"><g transform="translate(48.847536, 30.59713)"><g><path d="M 10.171875 0.109375 C 8.753906 -0.222656 7.472656 -0.796875 6.328125 -1.609375 C 5.179688 -2.429688 4.195312 -3.410156 3.375 -4.546875 C 2.5625 -5.679688 1.9375 -6.90625 1.5 -8.21875 C 1.070312 -9.539062 0.859375 -10.882812 0.859375 -12.25 C 0.859375 -14.0625 1.171875 -15.785156 1.796875 -17.421875 C 2.429688 -19.066406 3.332031 -20.519531 4.5 -21.78125 C 5.664062 -23.039062 7.054688 -24.035156 8.671875 -24.765625 C 10.296875 -25.492188 12.082031 -25.859375 14.03125 -25.859375 C 14.976562 -25.859375 15.757812 -25.816406 16.375 -25.734375 C 16.988281 -25.660156 17.503906 -25.550781 17.921875 -25.40625 C 18.816406 -25.113281 19.8125 -24.96875 20.90625 -24.96875 C 21.289062 -24.96875 21.65625 -24.988281 22 -25.03125 C 22.351562 -25.070312 22.691406 -25.128906 23.015625 -25.203125 L 23.296875 -25.28125 C 22.710938 -22.476562 22.316406 -19.476562 22.109375 -16.28125 C 21.835938 -18.25 21.40625 -19.847656 20.8125 -21.078125 C 20.21875 -22.304688 19.523438 -23.207031 18.734375 -23.78125 C 17.953125 -24.363281 17.125 -24.65625 16.25 -24.65625 C 15.28125 -24.65625 14.316406 -24.332031 13.359375 -23.6875 C 12.410156 -23.050781 11.539062 -22.140625 10.75 -20.953125 C 9.96875 -19.765625 9.335938 -18.359375 8.859375 -16.734375 C 8.390625 -15.117188 8.15625 -13.335938 8.15625 -11.390625 C 8.15625 -9.347656 8.320312 -7.625 8.65625 -6.21875 C 9 -4.820312 9.46875 -3.695312 10.0625 -2.84375 C 10.664062 -1.988281 11.34375 -1.363281 12.09375 -0.96875 C 12.84375 -0.582031 13.625 -0.390625 14.4375 -0.390625 C 15.25 -0.390625 16.066406 -0.550781 16.890625 -0.875 C 17.710938 -1.195312 18.484375 -1.640625 19.203125 -2.203125 C 19.921875 -2.765625 20.554688 -3.410156 21.109375 -4.140625 C 21.660156 -4.867188 22.078125 -5.628906 22.359375 -6.421875 C 22.453125 -5.265625 22.570312 -4.179688 22.71875 -3.171875 C 22.875 -2.171875 23.066406 -1.113281 23.296875 0 L 23.015625 -0.078125 C 22.117188 -0.285156 21.226562 -0.390625 20.34375 -0.390625 C 20.039062 -0.390625 19.742188 -0.375 19.453125 -0.34375 C 19.171875 -0.320312 18.898438 -0.289062 18.640625 -0.25 C 17.503906 -0.0390625 16.5625 0.148438 15.8125 0.328125 C 15.0625 0.503906 14.28125 0.59375 13.46875 0.59375 C 13.007812 0.59375 12.515625 0.554688 11.984375 0.484375 C 11.453125 0.410156 10.847656 0.285156 10.171875 0.109375 Z M 10.171875 0.109375 "/></g></g></g><g fill="#003479" fill-opacity="1"><g transform="translate(76.993424, 11.778383)"><g><path d="M 4.234375 -1.328125 L 1.984375 -1.328125 L 1.4375 0 L 0.109375 0 L 3.171875 -7.0625 L 3.25 -7.0625 L 6.3125 0 L 4.765625 0 Z M 3.796875 -2.453125 L 3.140625 -4.109375 L 2.453125 -2.453125 Z M 3.796875 -2.453125 "/></g></g></g><g fill="#003479" fill-opacity="1"><g transform="translate(84.353949, 11.778383)"><g><path d="M 4.5 -5.15625 C 3.914062 -5.476562 3.40625 -5.640625 2.96875 -5.640625 C 2.664062 -5.640625 2.429688 -5.582031 2.265625 -5.46875 C 2.109375 -5.351562 2.03125 -5.175781 2.03125 -4.9375 C 2.03125 -4.726562 2.148438 -4.539062 2.390625 -4.375 C 2.628906 -4.207031 2.941406 -4.050781 3.328125 -3.90625 C 3.648438 -3.789062 3.925781 -3.65625 4.15625 -3.5 C 4.382812 -3.351562 4.570312 -3.144531 4.71875 -2.875 C 4.875 -2.613281 4.953125 -2.28125 4.953125 -1.875 C 4.953125 -1.519531 4.859375 -1.191406 4.671875 -0.890625 C 4.492188 -0.597656 4.226562 -0.363281 3.875 -0.1875 C 3.53125 -0.0078125 3.113281 0.078125 2.625 0.078125 C 2.21875 0.078125 1.8125 0.0195312 1.40625 -0.09375 C 1.007812 -0.21875 0.640625 -0.40625 0.296875 -0.65625 L 0.890625 -1.703125 C 1.117188 -1.523438 1.382812 -1.378906 1.6875 -1.265625 C 1.988281 -1.160156 2.257812 -1.109375 2.5 -1.109375 C 2.78125 -1.109375 3.023438 -1.164062 3.234375 -1.28125 C 3.453125 -1.40625 3.5625 -1.601562 3.5625 -1.875 C 3.5625 -2.226562 3.226562 -2.53125 2.5625 -2.78125 C 2.175781 -2.9375 1.851562 -3.082031 1.59375 -3.21875 C 1.332031 -3.363281 1.109375 -3.566406 0.921875 -3.828125 C 0.734375 -4.097656 0.640625 -4.4375 0.640625 -4.84375 C 0.640625 -5.425781 0.832031 -5.894531 1.21875 -6.25 C 1.601562 -6.601562 2.117188 -6.796875 2.765625 -6.828125 C 3.265625 -6.828125 3.679688 -6.769531 4.015625 -6.65625 C 4.359375 -6.539062 4.691406 -6.378906 5.015625 -6.171875 Z M 4.5 -5.15625 "/></g></g></g><g fill="#003479" fill-opacity="1"><g transform="translate(90.672268, 11.778383)"><g><path d="M 2.21875 -6.796875 L 2.21875 0 L 0.875 0 L 0.875 -6.796875 Z M 2.21875 -6.796875 "/></g></g></g><g fill="#003479" fill-opacity="1"><g transform="translate(94.70328, 11.778383)"><g><path d="M 4.234375 -1.328125 L 1.984375 -1.328125 L 1.4375 0 L 0.109375 0 L 3.171875 -7.0625 L 3.25 -7.0625 L 6.3125 0 L 4.765625 0 Z M 3.796875 -2.453125 L 3.140625 -4.109375 L 2.453125 -2.453125 Z M 3.796875 -2.453125 "/></g></g></g><g fill="#003479" fill-opacity="1"><g transform="translate(102.063805, 11.778383)"><g><path d="M 7 -6.796875 L 7 0.28125 L 6.96875 0.28125 L 2.203125 -4.015625 L 2.234375 0 L 0.875 0 L 0.875 -7.0625 L 0.9375 -7.0625 L 5.671875 -2.703125 L 5.65625 -6.796875 Z M 7 -6.796875 "/></g></g></g><g fill="#003479" fill-opacity="1"><g transform="translate(76.993424, 21.537407)"><g><path d="M 5.515625 -6.796875 L 5.515625 -5.5 L 2.21875 -5.5 L 2.21875 -4.046875 L 5.140625 -4.046875 L 5.140625 -2.765625 L 2.21875 -2.765625 L 2.21875 -1.296875 L 5.640625 -1.296875 L 5.640625 0 L 0.875 0 L 0.875 -6.796875 Z M 5.515625 -6.796875 "/></g></g></g><g fill="#003479" fill-opacity="1"><g transform="translate(84.077259, 21.537407)"><g><path d="M 0.875 -6.796875 L 2.90625 -6.796875 C 3.769531 -6.796875 4.484375 -6.628906 5.046875 -6.296875 C 5.609375 -5.960938 6.015625 -5.523438 6.265625 -4.984375 C 6.523438 -4.453125 6.65625 -3.882812 6.65625 -3.28125 C 6.65625 -2.625 6.5 -2.046875 6.1875 -1.546875 C 5.882812 -1.046875 5.472656 -0.660156 4.953125 -0.390625 C 4.429688 -0.128906 3.859375 0 3.234375 0 L 0.875 0 Z M 3.015625 -1.296875 C 3.703125 -1.296875 4.25 -1.472656 4.65625 -1.828125 C 5.0625 -2.179688 5.265625 -2.695312 5.265625 -3.375 C 5.265625 -3.914062 5.148438 -4.34375 4.921875 -4.65625 C 4.703125 -4.976562 4.441406 -5.203125 4.140625 -5.328125 C 3.847656 -5.453125 3.570312 -5.515625 3.3125 -5.515625 L 2.21875 -5.515625 L 2.21875 -1.296875 Z M 3.015625 -1.296875 "/></g></g></g><g fill="#003479" fill-opacity="1"><g transform="translate(92.12951, 21.537407)"><g><path d="M 2.078125 -2.515625 C 2.078125 -2.296875 2.140625 -2.085938 2.265625 -1.890625 C 2.398438 -1.691406 2.570312 -1.53125 2.78125 -1.40625 C 3 -1.289062 3.234375 -1.234375 3.484375 -1.234375 C 3.742188 -1.234375 3.984375 -1.289062 4.203125 -1.40625 C 4.429688 -1.53125 4.609375 -1.691406 4.734375 -1.890625 C 4.859375 -2.085938 4.921875 -2.296875 4.921875 -2.515625 L 4.921875 -6.796875 L 6.25 -6.796875 L 6.25 -2.484375 C 6.25 -1.992188 6.125 -1.550781 5.875 -1.15625 C 5.625 -0.769531 5.285156 -0.46875 4.859375 -0.25 C 4.441406 -0.03125 3.984375 0.078125 3.484375 0.078125 C 2.972656 0.078125 2.507812 -0.03125 2.09375 -0.25 C 1.675781 -0.46875 1.34375 -0.769531 1.09375 -1.15625 C 0.851562 -1.550781 0.734375 -1.992188 0.734375 -2.484375 L 0.734375 -6.796875 L 2.078125 -6.796875 Z M 2.078125 -2.515625 "/></g></g></g><g fill="#003479" fill-opacity="1"><g transform="translate(100.043414, 21.537407)"><g><path d="M 5.96875 -0.5625 C 5.800781 -0.414062 5.53125 -0.269531 5.15625 -0.125 C 4.78125 0.0078125 4.367188 0.078125 3.921875 0.078125 C 3.210938 0.078125 2.597656 -0.0703125 2.078125 -0.375 C 1.554688 -0.6875 1.15625 -1.101562 0.875 -1.625 C 0.601562 -2.144531 0.46875 -2.71875 0.46875 -3.34375 C 0.46875 -4.03125 0.601562 -4.640625 0.875 -5.171875 C 1.15625 -5.703125 1.539062 -6.117188 2.03125 -6.421875 C 2.53125 -6.722656 3.109375 -6.875 3.765625 -6.875 C 4.179688 -6.875 4.5625 -6.816406 4.90625 -6.703125 C 5.257812 -6.585938 5.570312 -6.445312 5.84375 -6.28125 L 5.3125 -5.03125 C 4.820312 -5.394531 4.320312 -5.578125 3.8125 -5.578125 C 3.46875 -5.578125 3.144531 -5.476562 2.84375 -5.28125 C 2.539062 -5.09375 2.300781 -4.832031 2.125 -4.5 C 1.945312 -4.175781 1.859375 -3.816406 1.859375 -3.421875 C 1.859375 -2.984375 1.941406 -2.597656 2.109375 -2.265625 C 2.273438 -1.929688 2.507812 -1.671875 2.8125 -1.484375 C 3.125 -1.304688 3.484375 -1.21875 3.890625 -1.21875 C 4.222656 -1.21875 4.519531 -1.269531 4.78125 -1.375 C 5.050781 -1.488281 5.265625 -1.617188 5.421875 -1.765625 Z M 5.96875 -0.5625 "/></g></g></g><g fill="#003479" fill-opacity="1"><g transform="translate(107.413163, 21.537407)"><g><path d="M 4.234375 -1.328125 L 1.984375 -1.328125 L 1.4375 0 L 0.109375 0 L 3.171875 -7.0625 L 3.25 -7.0625 L 6.3125 0 L 4.765625 0 Z M 3.796875 -2.453125 L 3.140625 -4.109375 L 2.453125 -2.453125 Z M 3.796875 -2.453125 "/></g></g></g><g fill="#003479" fill-opacity="1"><g transform="translate(114.773687, 21.537407)"><g><path d="M 5 -6.796875 L 5 -5.5 L 3.34375 -5.5 L 3.34375 0 L 2 0 L 2 -5.5 L 0.421875 -5.5 L 0.421875 -6.796875 Z M 5 -6.796875 "/></g></g></g><g fill="#003479" fill-opacity="1"><g transform="translate(121.119676, 21.537407)"><g><path d="M 2.21875 -6.796875 L 2.21875 0 L 0.875 0 L 0.875 -6.796875 Z M 2.21875 -6.796875 "/></g></g></g><g fill="#003479" fill-opacity="1"><g transform="translate(125.150689, 21.537407)"><g><path d="M 0.46875 -3.390625 C 0.46875 -4.003906 0.617188 -4.578125 0.921875 -5.109375 C 1.234375 -5.648438 1.65625 -6.078125 2.1875 -6.390625 C 2.71875 -6.710938 3.296875 -6.875 3.921875 -6.875 C 4.546875 -6.875 5.125 -6.710938 5.65625 -6.390625 C 6.1875 -6.078125 6.609375 -5.648438 6.921875 -5.109375 C 7.242188 -4.578125 7.40625 -4.003906 7.40625 -3.390625 C 7.40625 -2.765625 7.242188 -2.1875 6.921875 -1.65625 C 6.609375 -1.125 6.1875 -0.703125 5.65625 -0.390625 C 5.125 -0.078125 4.546875 0.078125 3.921875 0.078125 C 3.296875 0.078125 2.71875 -0.078125 2.1875 -0.390625 C 1.65625 -0.703125 1.234375 -1.125 0.921875 -1.65625 C 0.617188 -2.1875 0.46875 -2.765625 0.46875 -3.390625 Z M 1.84375 -3.390625 C 1.84375 -2.992188 1.9375 -2.628906 2.125 -2.296875 C 2.3125 -1.960938 2.566406 -1.695312 2.890625 -1.5 C 3.210938 -1.3125 3.570312 -1.21875 3.96875 -1.21875 C 4.351562 -1.21875 4.703125 -1.3125 5.015625 -1.5 C 5.328125 -1.695312 5.570312 -1.957031 5.75 -2.28125 C 5.925781 -2.613281 6.015625 -2.984375 6.015625 -3.390625 C 6.015625 -3.796875 5.921875 -4.164062 5.734375 -4.5 C 5.554688 -4.832031 5.304688 -5.09375 4.984375 -5.28125 C 4.671875 -5.476562 4.320312 -5.578125 3.9375 -5.578125 C 3.550781 -5.578125 3.195312 -5.476562 2.875 -5.28125 C 2.5625 -5.09375 2.3125 -4.832031 2.125 -4.5 C 1.9375 -4.164062 1.84375 -3.796875 1.84375 -3.390625 Z M 1.84375 -3.390625 "/></g></g></g><g fill="#003479" fill-opacity="1"><g transform="translate(133.950004, 21.537407)"><g><path d="M 7 -6.796875 L 7 0.28125 L 6.96875 0.28125 L 2.203125 -4.015625 L 2.234375 0 L 0.875 0 L 0.875 -7.0625 L 0.9375 -7.0625 L 5.671875 -2.703125 L 5.65625 -6.796875 Z M 7 -6.796875 "/></g></g></g><g fill="#003479" fill-opacity="1"><g transform="translate(76.993424, 28.33915)"><g><path d="M 3.671875 -0.34375 C 3.566406 -0.257812 3.394531 -0.171875 3.15625 -0.078125 C 2.925781 0.00390625 2.675781 0.046875 2.40625 0.046875 C 1.976562 0.046875 1.601562 -0.046875 1.28125 -0.234375 C 0.957031 -0.421875 0.707031 -0.675781 0.53125 -1 C 0.363281 -1.320312 0.28125 -1.671875 0.28125 -2.046875 C 0.28125 -2.472656 0.363281 -2.847656 0.53125 -3.171875 C 0.707031 -3.503906 0.945312 -3.757812 1.25 -3.9375 C 1.5625 -4.125 1.914062 -4.21875 2.3125 -4.21875 C 2.5625 -4.21875 2.796875 -4.179688 3.015625 -4.109375 C 3.234375 -4.046875 3.421875 -3.960938 3.578125 -3.859375 L 3.265625 -3.078125 C 2.960938 -3.304688 2.65625 -3.421875 2.34375 -3.421875 C 2.132812 -3.421875 1.9375 -3.363281 1.75 -3.25 C 1.5625 -3.132812 1.410156 -2.972656 1.296875 -2.765625 C 1.191406 -2.566406 1.140625 -2.34375 1.140625 -2.09375 C 1.140625 -1.832031 1.191406 -1.597656 1.296875 -1.390625 C 1.398438 -1.191406 1.546875 -1.035156 1.734375 -0.921875 C 1.921875 -0.804688 2.140625 -0.75 2.390625 -0.75 C 2.597656 -0.75 2.78125 -0.78125 2.9375 -0.84375 C 3.101562 -0.914062 3.234375 -0.992188 3.328125 -1.078125 Z M 3.671875 -0.34375 "/></g></g></g><g fill="#003479" fill-opacity="1"><g transform="translate(81.527724, 28.33915)"><g><path d="M 0.28125 -2.078125 C 0.28125 -2.460938 0.375 -2.816406 0.5625 -3.140625 C 0.757812 -3.472656 1.019531 -3.734375 1.34375 -3.921875 C 1.675781 -4.117188 2.03125 -4.21875 2.40625 -4.21875 C 2.789062 -4.21875 3.144531 -4.117188 3.46875 -3.921875 C 3.800781 -3.734375 4.0625 -3.472656 4.25 -3.140625 C 4.445312 -2.816406 4.546875 -2.460938 4.546875 -2.078125 C 4.546875 -1.691406 4.445312 -1.335938 4.25 -1.015625 C 4.0625 -0.691406 3.800781 -0.429688 3.46875 -0.234375 C 3.144531 -0.046875 2.789062 0.046875 2.40625 0.046875 C 2.019531 0.046875 1.664062 -0.046875 1.34375 -0.234375 C 1.019531 -0.429688 0.757812 -0.691406 0.5625 -1.015625 C 0.375 -1.335938 0.28125 -1.691406 0.28125 -2.078125 Z M 1.140625 -2.078125 C 1.140625 -1.835938 1.195312 -1.613281 1.3125 -1.40625 C 1.425781 -1.207031 1.582031 -1.046875 1.78125 -0.921875 C 1.976562 -0.804688 2.195312 -0.75 2.4375 -0.75 C 2.675781 -0.75 2.890625 -0.804688 3.078125 -0.921875 C 3.273438 -1.046875 3.425781 -1.207031 3.53125 -1.40625 C 3.644531 -1.613281 3.703125 -1.835938 3.703125 -2.078125 C 3.703125 -2.328125 3.644531 -2.550781 3.53125 -2.75 C 3.414062 -2.957031 3.257812 -3.117188 3.0625 -3.234375 C 2.875 -3.359375 2.660156 -3.421875 2.421875 -3.421875 C 2.179688 -3.421875 1.960938 -3.359375 1.765625 -3.234375 C 1.566406 -3.117188 1.410156 -2.957031 1.296875 -2.75 C 1.191406 -2.550781 1.140625 -2.328125 1.140625 -2.078125 Z M 1.140625 -2.078125 "/></g></g></g><g fill="#003479" fill-opacity="1"><g transform="translate(86.941531, 28.33915)"><g><path d="M 2.609375 -0.8125 L 1.21875 -0.8125 L 0.875 0 L 0.0625 0 L 1.953125 -4.34375 L 2 -4.34375 L 3.875 0 L 2.921875 0 Z M 2.328125 -1.515625 L 1.921875 -2.53125 L 1.515625 -1.515625 Z M 2.328125 -1.515625 "/></g></g></g><g fill="#003479" fill-opacity="1"><g transform="translate(91.470153, 28.33915)"><g><path d="M 1.359375 -4.171875 L 1.359375 -0.796875 L 3.328125 -0.796875 L 3.328125 0 L 0.53125 0 L 0.53125 -4.171875 Z M 1.359375 -4.171875 "/></g></g></g><g fill="#003479" fill-opacity="1"><g transform="translate(95.68669, 28.33915)"><g><path d="M 1.359375 -4.171875 L 1.359375 0 L 0.53125 0 L 0.53125 -4.171875 Z M 1.359375 -4.171875 "/></g></g></g><g fill="#003479" fill-opacity="1"><g transform="translate(98.166905, 28.33915)"><g><path d="M 3.0625 -4.171875 L 3.0625 -3.375 L 2.046875 -3.375 L 2.046875 0 L 1.234375 0 L 1.234375 -3.375 L 0.25 -3.375 L 0.25 -4.171875 Z M 3.0625 -4.171875 "/></g></g></g><g fill="#003479" fill-opacity="1"><g transform="translate(102.071362, 28.33915)"><g><path d="M 1.359375 -4.171875 L 1.359375 0 L 0.53125 0 L 0.53125 -4.171875 Z M 1.359375 -4.171875 "/></g></g></g><g fill="#003479" fill-opacity="1"><g transform="translate(104.551576, 28.33915)"><g><path d="M 0.28125 -2.078125 C 0.28125 -2.460938 0.375 -2.816406 0.5625 -3.140625 C 0.757812 -3.472656 1.019531 -3.734375 1.34375 -3.921875 C 1.675781 -4.117188 2.03125 -4.21875 2.40625 -4.21875 C 2.789062 -4.21875 3.144531 -4.117188 3.46875 -3.921875 C 3.800781 -3.734375 4.0625 -3.472656 4.25 -3.140625 C 4.445312 -2.816406 4.546875 -2.460938 4.546875 -2.078125 C 4.546875 -1.691406 4.445312 -1.335938 4.25 -1.015625 C 4.0625 -0.691406 3.800781 -0.429688 3.46875 -0.234375 C 3.144531 -0.046875 2.789062 0.046875 2.40625 0.046875 C 2.019531 0.046875 1.664062 -0.046875 1.34375 -0.234375 C 1.019531 -0.429688 0.757812 -0.691406 0.5625 -1.015625 C 0.375 -1.335938 0.28125 -1.691406 0.28125 -2.078125 Z M 1.140625 -2.078125 C 1.140625 -1.835938 1.195312 -1.613281 1.3125 -1.40625 C 1.425781 -1.207031 1.582031 -1.046875 1.78125 -0.921875 C 1.976562 -0.804688 2.195312 -0.75 2.4375 -0.75 C 2.675781 -0.75 2.890625 -0.804688 3.078125 -0.921875 C 3.273438 -1.046875 3.425781 -1.207031 3.53125 -1.40625 C 3.644531 -1.613281 3.703125 -1.835938 3.703125 -2.078125 C 3.703125 -2.328125 3.644531 -2.550781 3.53125 -2.75 C 3.414062 -2.957031 3.257812 -3.117188 3.0625 -3.234375 C 2.875 -3.359375 2.660156 -3.421875 2.421875 -3.421875 C 2.179688 -3.421875 1.960938 -3.359375 1.765625 -3.234375 C 1.566406 -3.117188 1.410156 -2.957031 1.296875 -2.75 C 1.191406 -2.550781 1.140625 -2.328125 1.140625 -2.078125 Z M 1.140625 -2.078125 "/></g></g></g><g fill="#003479" fill-opacity="1"><g transform="translate(109.965385, 28.33915)"><g><path d="M 4.296875 -4.171875 L 4.296875 0.171875 L 4.28125 0.171875 L 1.359375 -2.46875 L 1.375 0 L 0.53125 0 L 0.53125 -4.34375 L 0.578125 -4.34375 L 3.484375 -1.65625 L 3.46875 -4.171875 Z M 4.296875 -4.171875 "/></g></g></g><g fill="#003479" fill-opacity="1"><g transform="translate(77.336945, 31.472838)"><g><path d="M 0.984375 -0.8125 C 1.066406 -0.769531 1.128906 -0.71875 1.171875 -0.65625 C 1.210938 -0.59375 1.234375 -0.523438 1.234375 -0.453125 C 1.234375 -0.296875 1.179688 -0.179688 1.078125 -0.109375 C 0.984375 -0.0351562 0.859375 0 0.703125 0 L 0.203125 0 L 0.203125 -1.53125 L 0.640625 -1.53125 C 0.804688 -1.53125 0.9375 -1.492188 1.03125 -1.421875 C 1.125 -1.359375 1.171875 -1.265625 1.171875 -1.140625 C 1.171875 -1.066406 1.15625 -1 1.125 -0.9375 C 1.09375 -0.882812 1.046875 -0.84375 0.984375 -0.8125 Z M 0.5 -0.90625 L 0.6875 -0.90625 C 0.738281 -0.90625 0.78125 -0.921875 0.8125 -0.953125 C 0.84375 -0.984375 0.859375 -1.023438 0.859375 -1.078125 C 0.859375 -1.128906 0.835938 -1.164062 0.796875 -1.1875 C 0.765625 -1.21875 0.71875 -1.234375 0.65625 -1.234375 L 0.5 -1.234375 Z M 0.6875 -0.28125 C 0.757812 -0.28125 0.816406 -0.289062 0.859375 -0.3125 C 0.898438 -0.34375 0.921875 -0.390625 0.921875 -0.453125 C 0.921875 -0.554688 0.835938 -0.609375 0.671875 -0.609375 L 0.5 -0.609375 L 0.5 -0.28125 Z M 0.6875 -0.28125 "/></g></g></g><g fill="#003479" fill-opacity="1"><g transform="translate(78.677105, 31.472838)"><g><path d="M 1.46875 -1.53125 L 0.890625 -0.46875 L 0.890625 0 L 0.59375 0 L 0.59375 -0.46875 L 0.03125 -1.53125 L 0.40625 -1.53125 L 0.75 -0.828125 L 1.09375 -1.53125 Z M 1.46875 -1.53125 "/></g></g></g><g fill="#003479" fill-opacity="1"><g transform="translate(80.172616, 31.472838)"><g/></g></g><g fill="#003479" fill-opacity="1"><g transform="translate(80.845803, 31.472838)"><g><path d="M 0.5 -1.53125 L 0.5 0 L 0.203125 0 L 0.203125 -1.53125 Z M 0.5 -1.53125 "/></g></g></g><g fill="#003479" fill-opacity="1"><g transform="translate(81.539705, 31.472838)"><g><path d="M 0.65625 -1.53125 C 0.84375 -1.53125 0.988281 -1.484375 1.09375 -1.390625 C 1.195312 -1.296875 1.25 -1.171875 1.25 -1.015625 C 1.25 -0.921875 1.226562 -0.832031 1.1875 -0.75 C 1.15625 -0.675781 1.097656 -0.613281 1.015625 -0.5625 C 0.941406 -0.507812 0.84375 -0.484375 0.71875 -0.484375 L 0.5 -0.484375 L 0.5 0 L 0.203125 0 L 0.203125 -1.53125 Z M 0.71875 -0.78125 C 0.769531 -0.78125 0.8125 -0.789062 0.84375 -0.8125 C 0.882812 -0.84375 0.910156 -0.875 0.921875 -0.90625 C 0.941406 -0.9375 0.953125 -0.96875 0.953125 -1 C 0.953125 -1.0625 0.9375 -1.113281 0.90625 -1.15625 C 0.875 -1.207031 0.8125 -1.234375 0.71875 -1.234375 L 0.5 -1.234375 L 0.5 -0.78125 Z M 0.71875 -0.78125 "/></g></g></g><g fill="#003479" fill-opacity="1"><g transform="translate(82.857079, 31.472838)"><g><path d="M 1.578125 -1.53125 L 1.578125 0.0625 L 1.5625 0.0625 L 0.5 -0.90625 L 0.5 0 L 0.203125 0 L 0.203125 -1.59375 L 1.28125 -0.609375 L 1.265625 -1.53125 Z M 1.578125 -1.53125 "/></g></g></g><g fill="#003479" fill-opacity="1"><g transform="translate(84.623936, 31.472838)"><g/></g></g><g fill="#003479" fill-opacity="1"><g transform="translate(85.297122, 31.472838)"><g><path d="M 1.125 -1.53125 L 1.125 -1.234375 L 0.75 -1.234375 L 0.75 0 L 0.453125 0 L 0.453125 -1.234375 L 0.09375 -1.234375 L 0.09375 -1.53125 Z M 1.125 -1.53125 "/></g></g></g><g fill="#003479" fill-opacity="1"><g transform="translate(86.510929, 31.472838)"><g><path d="M 1.015625 0 L 0.703125 -0.484375 L 0.5 -0.484375 L 0.5 0 L 0.203125 0 L 0.203125 -1.53125 L 0.65625 -1.53125 C 0.851562 -1.53125 1.003906 -1.484375 1.109375 -1.390625 C 1.210938 -1.296875 1.265625 -1.171875 1.265625 -1.015625 C 1.265625 -0.921875 1.242188 -0.832031 1.203125 -0.75 C 1.160156 -0.664062 1.097656 -0.601562 1.015625 -0.5625 L 1.375 0 Z M 0.5 -0.78125 L 0.71875 -0.78125 C 0.789062 -0.78125 0.847656 -0.800781 0.890625 -0.84375 C 0.929688 -0.894531 0.953125 -0.945312 0.953125 -1 C 0.953125 -1.0625 0.9375 -1.113281 0.90625 -1.15625 C 0.875 -1.207031 0.8125 -1.234375 0.71875 -1.234375 L 0.5 -1.234375 Z M 0.5 -0.78125 "/></g></g></g><g fill="#003479" fill-opacity="1"><g transform="translate(87.931871, 31.472838)"><g><path d="M 0.46875 -0.5625 C 0.46875 -0.519531 0.484375 -0.472656 0.515625 -0.421875 C 0.546875 -0.378906 0.582031 -0.34375 0.625 -0.3125 C 0.675781 -0.289062 0.726562 -0.28125 0.78125 -0.28125 C 0.84375 -0.28125 0.894531 -0.289062 0.9375 -0.3125 C 0.988281 -0.34375 1.03125 -0.378906 1.0625 -0.421875 C 1.09375 -0.472656 1.109375 -0.519531 1.109375 -0.5625 L 1.109375 -1.53125 L 1.40625 -1.53125 L 1.40625 -0.5625 C 1.40625 -0.445312 1.375 -0.34375 1.3125 -0.25 C 1.257812 -0.164062 1.1875 -0.0976562 1.09375 -0.046875 C 1 -0.00390625 0.894531 0.015625 0.78125 0.015625 C 0.664062 0.015625 0.5625 -0.00390625 0.46875 -0.046875 C 0.375 -0.0976562 0.300781 -0.164062 0.25 -0.25 C 0.195312 -0.34375 0.171875 -0.445312 0.171875 -0.5625 L 0.171875 -1.53125 L 0.46875 -1.53125 Z M 0.46875 -0.5625 "/></g></g></g><g fill="#003479" fill-opacity="1"><g transform="translate(89.497809, 31.472838)"><g><path d="M 1.015625 -1.15625 C 0.878906 -1.226562 0.765625 -1.265625 0.671875 -1.265625 C 0.597656 -1.265625 0.539062 -1.25 0.5 -1.21875 C 0.46875 -1.195312 0.453125 -1.160156 0.453125 -1.109375 C 0.453125 -1.054688 0.476562 -1.007812 0.53125 -0.96875 C 0.582031 -0.9375 0.65625 -0.90625 0.75 -0.875 C 0.820312 -0.851562 0.882812 -0.820312 0.9375 -0.78125 C 0.988281 -0.75 1.03125 -0.703125 1.0625 -0.640625 C 1.09375 -0.585938 1.109375 -0.515625 1.109375 -0.421875 C 1.109375 -0.335938 1.085938 -0.265625 1.046875 -0.203125 C 1.003906 -0.140625 0.941406 -0.0859375 0.859375 -0.046875 C 0.785156 -0.00390625 0.695312 0.015625 0.59375 0.015625 C 0.5 0.015625 0.40625 0.00390625 0.3125 -0.015625 C 0.226562 -0.046875 0.144531 -0.0859375 0.0625 -0.140625 L 0.203125 -0.375 C 0.253906 -0.34375 0.3125 -0.3125 0.375 -0.28125 C 0.445312 -0.257812 0.507812 -0.25 0.5625 -0.25 C 0.625 -0.25 0.675781 -0.257812 0.71875 -0.28125 C 0.769531 -0.3125 0.796875 -0.359375 0.796875 -0.421875 C 0.796875 -0.503906 0.722656 -0.570312 0.578125 -0.625 C 0.492188 -0.65625 0.421875 -0.6875 0.359375 -0.71875 C 0.296875 -0.757812 0.242188 -0.804688 0.203125 -0.859375 C 0.160156 -0.921875 0.140625 -1 0.140625 -1.09375 C 0.140625 -1.21875 0.179688 -1.320312 0.265625 -1.40625 C 0.359375 -1.488281 0.476562 -1.53125 0.625 -1.53125 C 0.738281 -1.53125 0.832031 -1.515625 0.90625 -1.484375 C 0.976562 -1.460938 1.050781 -1.429688 1.125 -1.390625 Z M 1.015625 -1.15625 "/></g></g></g><g fill="#003479" fill-opacity="1"><g transform="translate(90.705402, 31.472838)"><g><path d="M 1.125 -1.53125 L 1.125 -1.234375 L 0.75 -1.234375 L 0.75 0 L 0.453125 0 L 0.453125 -1.234375 L 0.09375 -1.234375 L 0.09375 -1.53125 Z M 1.125 -1.53125 "/></g></g></g></svg>