<svg xmlns="http://www.w3.org/2000/svg" xmlns:xlink="http://www.w3.org/1999/xlink" width="193" zoomAndPan="magnify" viewBox="0 0 144.75 39.749999" height="53" preserveAspectRatio="xMidYMid meet" version="1.0"><defs><g/></defs><g fill="#ffffff" fill-opacity="1"><g transform="translate(1.54195, 30.975996)"><g><path d="M 0 0 C 0.570312 -0.769531 1.117188 -1.582031 1.640625 -2.4375 C 2.160156 -3.300781 2.679688 -4.296875 3.203125 -5.421875 C 3.734375 -6.546875 4.316406 -7.867188 4.953125 -9.390625 C 5.597656 -10.921875 6.335938 -12.722656 7.171875 -14.796875 L 11.546875 -25.609375 L 16.578125 -26.1875 C 16.578125 -25.894531 16.695312 -25.269531 16.9375 -24.3125 C 17.175781 -23.351562 17.507812 -22.160156 17.9375 -20.734375 C 18.375 -19.304688 18.898438 -17.726562 19.515625 -16 C 20.128906 -14.269531 20.8125 -12.46875 21.5625 -10.59375 C 22.320312 -8.726562 23.140625 -6.890625 24.015625 -5.078125 C 24.890625 -3.265625 25.804688 -1.570312 26.765625 0 L 16.484375 0 C 16.796875 -1.019531 16.882812 -2.285156 16.75 -3.796875 C 16.613281 -5.316406 16.335938 -6.910156 15.921875 -8.578125 L 6.015625 -8.578125 C 5.585938 -6.554688 5.570312 -4.875 5.96875 -3.53125 C 6.363281 -2.195312 7.203125 -1.019531 8.484375 0 Z M 6.21875 -9.46875 L 15.6875 -9.46875 C 15.257812 -11 14.757812 -12.503906 14.1875 -13.984375 C 13.613281 -15.460938 13.015625 -16.816406 12.390625 -18.046875 C 11.765625 -19.273438 11.144531 -20.269531 10.53125 -21.03125 L 8.140625 -15.078125 C 7.722656 -14.003906 7.347656 -13 7.015625 -12.0625 C 6.691406 -11.132812 6.425781 -10.269531 6.21875 -9.46875 Z M 6.21875 -9.46875 "/></g></g></g><g fill="#ffffff" fill-opacity="1"><g transform="translate(27.505223, 30.975996)"><g><path d="M 0.859375 0 C 1.304688 -1.957031 1.640625 -4.023438 1.859375 -6.203125 C 2.078125 -8.378906 2.1875 -10.578125 2.1875 -12.796875 C 2.1875 -15.023438 2.078125 -17.226562 1.859375 -19.40625 C 1.640625 -21.582031 1.304688 -23.648438 0.859375 -25.609375 L 21.734375 -25.609375 C 21.515625 -24.609375 21.328125 -23.65625 21.171875 -22.75 C 21.023438 -21.851562 20.898438 -20.925781 20.796875 -19.96875 C 20.703125 -19.007812 20.617188 -17.957031 20.546875 -16.8125 C 20.003906 -18.632812 19.144531 -20.128906 17.96875 -21.296875 C 16.789062 -22.460938 15.414062 -23.328125 13.84375 -23.890625 C 12.269531 -24.460938 10.597656 -24.75 8.828125 -24.75 C 8.523438 -23.175781 8.273438 -21.5 8.078125 -19.71875 C 7.890625 -17.945312 7.773438 -15.941406 7.734375 -13.703125 C 7.734375 -13.390625 7.878906 -13.234375 8.171875 -13.234375 L 10.296875 -13.234375 C 11.179688 -13.234375 11.992188 -13.34375 12.734375 -13.5625 C 13.472656 -13.789062 14.195312 -14.191406 14.90625 -14.765625 C 15.613281 -15.335938 16.34375 -16.160156 17.09375 -17.234375 C 17.019531 -16.085938 16.96875 -15.0625 16.9375 -14.15625 C 16.90625 -13.257812 16.90625 -12.363281 16.9375 -11.46875 C 16.96875 -10.570312 17.019531 -9.539062 17.09375 -8.375 C 16.363281 -9.425781 15.640625 -10.238281 14.921875 -10.8125 C 14.203125 -11.394531 13.46875 -11.800781 12.71875 -12.03125 C 11.96875 -12.257812 11.160156 -12.375 10.296875 -12.375 L 8.171875 -12.375 C 7.867188 -12.375 7.71875 -12.226562 7.71875 -11.9375 C 7.71875 -10.3125 7.8125 -8.53125 8 -6.59375 C 8.1875 -4.65625 8.460938 -2.742188 8.828125 -0.859375 C 10.578125 -0.859375 12.242188 -1.144531 13.828125 -1.71875 C 15.410156 -2.300781 16.789062 -3.175781 17.96875 -4.34375 C 19.144531 -5.507812 20.003906 -7 20.546875 -8.8125 C 20.617188 -7.65625 20.703125 -6.597656 20.796875 -5.640625 C 20.898438 -4.679688 21.023438 -3.75 21.171875 -2.84375 C 21.328125 -1.945312 21.515625 -1 21.734375 0 Z M 0.859375 0 "/></g></g></g><g fill="#ffffff" fill-opacity="1"><g transform="translate(49.812914, 30.975996)"><g><path d="M 10.296875 0.109375 C 8.859375 -0.234375 7.554688 -0.816406 6.390625 -1.640625 C 5.234375 -2.460938 4.242188 -3.445312 3.421875 -4.59375 C 2.597656 -5.75 1.960938 -6.992188 1.515625 -8.328125 C 1.078125 -9.660156 0.859375 -11.019531 0.859375 -12.40625 C 0.859375 -14.25 1.179688 -16 1.828125 -17.65625 C 2.472656 -19.3125 3.382812 -20.773438 4.5625 -22.046875 C 5.738281 -23.328125 7.144531 -24.335938 8.78125 -25.078125 C 10.425781 -25.816406 12.238281 -26.1875 14.21875 -26.1875 C 15.175781 -26.1875 15.96875 -26.144531 16.59375 -26.0625 C 17.21875 -25.988281 17.738281 -25.878906 18.15625 -25.734375 C 19.0625 -25.441406 20.070312 -25.296875 21.1875 -25.296875 C 21.5625 -25.296875 21.925781 -25.3125 22.28125 -25.34375 C 22.644531 -25.382812 22.988281 -25.445312 23.3125 -25.53125 L 23.59375 -25.609375 C 23 -22.773438 22.597656 -19.734375 22.390625 -16.484375 C 22.117188 -18.484375 21.679688 -20.101562 21.078125 -21.34375 C 20.472656 -22.59375 19.769531 -23.507812 18.96875 -24.09375 C 18.175781 -24.6875 17.34375 -24.984375 16.46875 -24.984375 C 15.488281 -24.984375 14.515625 -24.65625 13.546875 -24 C 12.578125 -23.34375 11.691406 -22.414062 10.890625 -21.21875 C 10.097656 -20.019531 9.460938 -18.597656 8.984375 -16.953125 C 8.503906 -15.316406 8.265625 -13.515625 8.265625 -11.546875 C 8.265625 -9.472656 8.4375 -7.722656 8.78125 -6.296875 C 9.125 -4.878906 9.597656 -3.738281 10.203125 -2.875 C 10.804688 -2.007812 11.484375 -1.378906 12.234375 -0.984375 C 12.992188 -0.597656 13.789062 -0.40625 14.625 -0.40625 C 15.445312 -0.40625 16.273438 -0.566406 17.109375 -0.890625 C 17.941406 -1.210938 18.722656 -1.65625 19.453125 -2.21875 C 20.179688 -2.789062 20.820312 -3.445312 21.375 -4.1875 C 21.9375 -4.925781 22.359375 -5.695312 22.640625 -6.5 C 22.742188 -5.332031 22.867188 -4.238281 23.015625 -3.21875 C 23.171875 -2.207031 23.363281 -1.132812 23.59375 0 L 23.3125 -0.09375 C 22.40625 -0.300781 21.503906 -0.40625 20.609375 -0.40625 C 20.296875 -0.40625 19.992188 -0.390625 19.703125 -0.359375 C 19.421875 -0.328125 19.144531 -0.296875 18.875 -0.265625 C 17.726562 -0.046875 16.773438 0.148438 16.015625 0.328125 C 15.253906 0.515625 14.460938 0.609375 13.640625 0.609375 C 13.179688 0.609375 12.679688 0.566406 12.140625 0.484375 C 11.609375 0.410156 10.992188 0.285156 10.296875 0.109375 Z M 10.296875 0.109375 "/></g></g></g><g fill="#ffffff" fill-opacity="1"><g transform="translate(78.336291, 11.904869)"><g><path d="M 4.28125 -1.34375 L 2.015625 -1.34375 L 1.453125 0 L 0.109375 0 L 3.21875 -7.140625 L 3.28125 -7.140625 L 6.390625 0 L 4.828125 0 Z M 3.84375 -2.484375 L 3.171875 -4.15625 L 2.484375 -2.484375 Z M 3.84375 -2.484375 "/></g></g></g><g fill="#ffffff" fill-opacity="1"><g transform="translate(85.795532, 11.904869)"><g><path d="M 4.5625 -5.21875 C 3.957031 -5.539062 3.4375 -5.703125 3 -5.703125 C 2.695312 -5.703125 2.460938 -5.644531 2.296875 -5.53125 C 2.140625 -5.414062 2.0625 -5.238281 2.0625 -5 C 2.0625 -4.78125 2.179688 -4.585938 2.421875 -4.421875 C 2.660156 -4.253906 2.976562 -4.097656 3.375 -3.953125 C 3.695312 -3.835938 3.972656 -3.703125 4.203125 -3.546875 C 4.429688 -3.390625 4.625 -3.175781 4.78125 -2.90625 C 4.9375 -2.644531 5.015625 -2.304688 5.015625 -1.890625 C 5.015625 -1.535156 4.921875 -1.207031 4.734375 -0.90625 C 4.546875 -0.601562 4.273438 -0.363281 3.921875 -0.1875 C 3.566406 -0.0078125 3.144531 0.078125 2.65625 0.078125 C 2.238281 0.078125 1.828125 0.015625 1.421875 -0.109375 C 1.023438 -0.234375 0.648438 -0.414062 0.296875 -0.65625 L 0.890625 -1.71875 C 1.128906 -1.539062 1.398438 -1.394531 1.703125 -1.28125 C 2.015625 -1.175781 2.289062 -1.125 2.53125 -1.125 C 2.820312 -1.125 3.070312 -1.179688 3.28125 -1.296875 C 3.488281 -1.421875 3.59375 -1.617188 3.59375 -1.890625 C 3.59375 -2.242188 3.257812 -2.554688 2.59375 -2.828125 C 2.207031 -2.984375 1.878906 -3.128906 1.609375 -3.265625 C 1.347656 -3.410156 1.125 -3.613281 0.9375 -3.875 C 0.75 -4.144531 0.65625 -4.484375 0.65625 -4.890625 C 0.65625 -5.484375 0.847656 -5.960938 1.234375 -6.328125 C 1.628906 -6.691406 2.148438 -6.890625 2.796875 -6.921875 C 3.304688 -6.921875 3.734375 -6.859375 4.078125 -6.734375 C 4.421875 -6.617188 4.753906 -6.457031 5.078125 -6.25 Z M 4.5625 -5.21875 "/></g></g></g><g fill="#ffffff" fill-opacity="1"><g transform="translate(92.198591, 11.904869)"><g><path d="M 2.25 -6.875 L 2.25 0 L 0.890625 0 L 0.890625 -6.875 Z M 2.25 -6.875 "/></g></g></g><g fill="#ffffff" fill-opacity="1"><g transform="translate(96.283665, 11.904869)"><g><path d="M 4.28125 -1.34375 L 2.015625 -1.34375 L 1.453125 0 L 0.109375 0 L 3.21875 -7.140625 L 3.28125 -7.140625 L 6.390625 0 L 4.828125 0 Z M 3.84375 -2.484375 L 3.171875 -4.15625 L 2.484375 -2.484375 Z M 3.84375 -2.484375 "/></g></g></g><g fill="#ffffff" fill-opacity="1"><g transform="translate(103.742906, 11.904869)"><g><path d="M 7.078125 -6.875 L 7.078125 0.28125 L 7.046875 0.28125 L 2.234375 -4.0625 L 2.265625 0 L 0.890625 0 L 0.890625 -7.140625 L 0.9375 -7.140625 L 5.75 -2.734375 L 5.71875 -6.875 Z M 7.078125 -6.875 "/></g></g></g><g fill="#ffffff" fill-opacity="1"><g transform="translate(78.336291, 21.794776)"><g><path d="M 5.578125 -6.875 L 5.578125 -5.5625 L 2.25 -5.5625 L 2.25 -4.109375 L 5.1875 -4.109375 L 5.1875 -2.796875 L 2.25 -2.796875 L 2.25 -1.3125 L 5.703125 -1.3125 L 5.703125 0 L 0.890625 0 L 0.890625 -6.875 Z M 5.578125 -6.875 "/></g></g></g><g fill="#ffffff" fill-opacity="1"><g transform="translate(85.515131, 21.794776)"><g><path d="M 0.890625 -6.875 L 2.9375 -6.875 C 3.820312 -6.875 4.546875 -6.703125 5.109375 -6.359375 C 5.679688 -6.023438 6.09375 -5.585938 6.34375 -5.046875 C 6.601562 -4.503906 6.734375 -3.925781 6.734375 -3.3125 C 6.734375 -2.65625 6.578125 -2.070312 6.265625 -1.5625 C 5.953125 -1.0625 5.53125 -0.675781 5 -0.40625 C 4.476562 -0.132812 3.90625 0 3.28125 0 L 0.890625 0 Z M 3.046875 -1.3125 C 3.753906 -1.3125 4.3125 -1.488281 4.71875 -1.84375 C 5.125 -2.207031 5.328125 -2.726562 5.328125 -3.40625 C 5.328125 -3.957031 5.210938 -4.394531 4.984375 -4.71875 C 4.765625 -5.039062 4.503906 -5.265625 4.203125 -5.390625 C 3.898438 -5.515625 3.613281 -5.578125 3.34375 -5.578125 L 2.25 -5.578125 L 2.25 -1.3125 Z M 3.046875 -1.3125 "/></g></g></g><g fill="#ffffff" fill-opacity="1"><g transform="translate(93.675376, 21.794776)"><g><path d="M 2.109375 -2.546875 C 2.109375 -2.328125 2.171875 -2.113281 2.296875 -1.90625 C 2.429688 -1.707031 2.609375 -1.546875 2.828125 -1.421875 C 3.046875 -1.304688 3.273438 -1.25 3.515625 -1.25 C 3.785156 -1.25 4.03125 -1.304688 4.25 -1.421875 C 4.476562 -1.546875 4.65625 -1.707031 4.78125 -1.90625 C 4.914062 -2.113281 4.984375 -2.328125 4.984375 -2.546875 L 4.984375 -6.875 L 6.3125 -6.875 L 6.3125 -2.515625 C 6.3125 -2.023438 6.1875 -1.582031 5.9375 -1.1875 C 5.6875 -0.789062 5.347656 -0.476562 4.921875 -0.25 C 4.492188 -0.03125 4.023438 0.078125 3.515625 0.078125 C 3.003906 0.078125 2.535156 -0.03125 2.109375 -0.25 C 1.691406 -0.476562 1.359375 -0.789062 1.109375 -1.1875 C 0.867188 -1.582031 0.75 -2.023438 0.75 -2.515625 L 0.75 -6.875 L 2.109375 -6.875 Z M 2.109375 -2.546875 "/></g></g></g><g fill="#ffffff" fill-opacity="1"><g transform="translate(101.695418, 21.794776)"><g><path d="M 6.046875 -0.5625 C 5.867188 -0.425781 5.585938 -0.285156 5.203125 -0.140625 C 4.828125 0.00390625 4.414062 0.078125 3.96875 0.078125 C 3.25 0.078125 2.625 -0.078125 2.09375 -0.390625 C 1.570312 -0.703125 1.171875 -1.117188 0.890625 -1.640625 C 0.609375 -2.171875 0.46875 -2.75 0.46875 -3.375 C 0.46875 -4.070312 0.609375 -4.691406 0.890625 -5.234375 C 1.171875 -5.773438 1.5625 -6.195312 2.0625 -6.5 C 2.570312 -6.800781 3.15625 -6.953125 3.8125 -6.953125 C 4.226562 -6.953125 4.613281 -6.894531 4.96875 -6.78125 C 5.320312 -6.664062 5.632812 -6.523438 5.90625 -6.359375 L 5.375 -5.078125 C 4.882812 -5.453125 4.378906 -5.640625 3.859375 -5.640625 C 3.503906 -5.640625 3.175781 -5.539062 2.875 -5.34375 C 2.570312 -5.15625 2.328125 -4.894531 2.140625 -4.5625 C 1.960938 -4.226562 1.875 -3.859375 1.875 -3.453125 C 1.875 -3.015625 1.957031 -2.628906 2.125 -2.296875 C 2.289062 -1.960938 2.53125 -1.703125 2.84375 -1.515625 C 3.15625 -1.328125 3.519531 -1.234375 3.9375 -1.234375 C 4.28125 -1.234375 4.582031 -1.285156 4.84375 -1.390625 C 5.113281 -1.503906 5.328125 -1.632812 5.484375 -1.78125 Z M 6.046875 -0.5625 "/></g></g></g><g fill="#ffffff" fill-opacity="1"><g transform="translate(109.164007, 21.794776)"><g><path d="M 4.28125 -1.34375 L 2.015625 -1.34375 L 1.453125 0 L 0.109375 0 L 3.21875 -7.140625 L 3.28125 -7.140625 L 6.390625 0 L 4.828125 0 Z M 3.84375 -2.484375 L 3.171875 -4.15625 L 2.484375 -2.484375 Z M 3.84375 -2.484375 "/></g></g></g><g fill="#ffffff" fill-opacity="1"><g transform="translate(116.623248, 21.794776)"><g><path d="M 5.0625 -6.875 L 5.0625 -5.5625 L 3.375 -5.5625 L 3.375 0 L 2.03125 0 L 2.03125 -5.5625 L 0.421875 -5.5625 L 0.421875 -6.875 Z M 5.0625 -6.875 "/></g></g></g><g fill="#ffffff" fill-opacity="1"><g transform="translate(123.054346, 21.794776)"><g><path d="M 2.25 -6.875 L 2.25 0 L 0.890625 0 L 0.890625 -6.875 Z M 2.25 -6.875 "/></g></g></g><g fill="#ffffff" fill-opacity="1"><g transform="translate(127.139421, 21.794776)"><g><path d="M 0.46875 -3.421875 C 0.46875 -4.046875 0.625 -4.628906 0.9375 -5.171875 C 1.25 -5.710938 1.675781 -6.144531 2.21875 -6.46875 C 2.757812 -6.789062 3.34375 -6.953125 3.96875 -6.953125 C 4.601562 -6.953125 5.1875 -6.789062 5.71875 -6.46875 C 6.257812 -6.144531 6.691406 -5.710938 7.015625 -5.171875 C 7.335938 -4.628906 7.5 -4.046875 7.5 -3.421875 C 7.5 -2.785156 7.335938 -2.203125 7.015625 -1.671875 C 6.691406 -1.140625 6.257812 -0.710938 5.71875 -0.390625 C 5.1875 -0.078125 4.601562 0.078125 3.96875 0.078125 C 3.332031 0.078125 2.742188 -0.078125 2.203125 -0.390625 C 1.671875 -0.710938 1.25 -1.140625 0.9375 -1.671875 C 0.625 -2.203125 0.46875 -2.785156 0.46875 -3.421875 Z M 1.875 -3.421875 C 1.875 -3.023438 1.96875 -2.660156 2.15625 -2.328125 C 2.34375 -1.992188 2.597656 -1.726562 2.921875 -1.53125 C 3.253906 -1.332031 3.617188 -1.234375 4.015625 -1.234375 C 4.398438 -1.234375 4.75 -1.332031 5.0625 -1.53125 C 5.382812 -1.726562 5.632812 -1.992188 5.8125 -2.328125 C 6 -2.660156 6.09375 -3.023438 6.09375 -3.421875 C 6.09375 -3.835938 6 -4.210938 5.8125 -4.546875 C 5.625 -4.890625 5.367188 -5.15625 5.046875 -5.34375 C 4.722656 -5.539062 4.367188 -5.640625 3.984375 -5.640625 C 3.585938 -5.640625 3.226562 -5.539062 2.90625 -5.34375 C 2.582031 -5.15625 2.328125 -4.890625 2.140625 -4.546875 C 1.960938 -4.210938 1.875 -3.835938 1.875 -3.421875 Z M 1.875 -3.421875 "/></g></g></g><g fill="#ffffff" fill-opacity="1"><g transform="translate(136.05675, 21.794776)"><g><path d="M 7.078125 -6.875 L 7.078125 0.28125 L 7.046875 0.28125 L 2.234375 -4.0625 L 2.265625 0 L 0.890625 0 L 0.890625 -7.140625 L 0.9375 -7.140625 L 5.75 -2.734375 L 5.71875 -6.875 Z M 7.078125 -6.875 "/></g></g></g><g fill="#ffffff" fill-opacity="1"><g transform="translate(78.336291, 28.687742)"><g><path d="M 3.71875 -0.34375 C 3.613281 -0.257812 3.441406 -0.171875 3.203125 -0.078125 C 2.972656 0.00390625 2.71875 0.046875 2.4375 0.046875 C 2 0.046875 1.617188 -0.046875 1.296875 -0.234375 C 0.972656 -0.429688 0.722656 -0.691406 0.546875 -1.015625 C 0.367188 -1.335938 0.28125 -1.691406 0.28125 -2.078125 C 0.28125 -2.503906 0.367188 -2.882812 0.546875 -3.21875 C 0.722656 -3.550781 0.960938 -3.8125 1.265625 -4 C 1.578125 -4.1875 1.9375 -4.28125 2.34375 -4.28125 C 2.601562 -4.28125 2.84375 -4.242188 3.0625 -4.171875 C 3.28125 -4.109375 3.472656 -4.023438 3.640625 -3.921875 L 3.3125 -3.125 C 3.007812 -3.351562 2.695312 -3.46875 2.375 -3.46875 C 2.15625 -3.46875 1.953125 -3.40625 1.765625 -3.28125 C 1.578125 -3.164062 1.425781 -3.003906 1.3125 -2.796875 C 1.207031 -2.597656 1.15625 -2.375 1.15625 -2.125 C 1.15625 -1.851562 1.207031 -1.613281 1.3125 -1.40625 C 1.414062 -1.207031 1.5625 -1.050781 1.75 -0.9375 C 1.945312 -0.820312 2.171875 -0.765625 2.421875 -0.765625 C 2.628906 -0.765625 2.816406 -0.796875 2.984375 -0.859375 C 3.148438 -0.921875 3.28125 -1 3.375 -1.09375 Z M 3.71875 -0.34375 "/></g></g></g><g fill="#ffffff" fill-opacity="1"><g transform="translate(82.931403, 28.687742)"><g><path d="M 0.28125 -2.109375 C 0.28125 -2.492188 0.378906 -2.851562 0.578125 -3.1875 C 0.773438 -3.519531 1.035156 -3.785156 1.359375 -3.984375 C 1.691406 -4.179688 2.050781 -4.28125 2.4375 -4.28125 C 2.832031 -4.28125 3.191406 -4.179688 3.515625 -3.984375 C 3.847656 -3.785156 4.113281 -3.519531 4.3125 -3.1875 C 4.507812 -2.851562 4.609375 -2.492188 4.609375 -2.109375 C 4.609375 -1.722656 4.507812 -1.363281 4.3125 -1.03125 C 4.113281 -0.695312 3.847656 -0.429688 3.515625 -0.234375 C 3.191406 -0.046875 2.832031 0.046875 2.4375 0.046875 C 2.050781 0.046875 1.691406 -0.046875 1.359375 -0.234375 C 1.035156 -0.429688 0.773438 -0.695312 0.578125 -1.03125 C 0.378906 -1.363281 0.28125 -1.722656 0.28125 -2.109375 Z M 1.15625 -2.109375 C 1.15625 -1.867188 1.210938 -1.644531 1.328125 -1.4375 C 1.441406 -1.226562 1.597656 -1.0625 1.796875 -0.9375 C 2.003906 -0.820312 2.226562 -0.765625 2.46875 -0.765625 C 2.707031 -0.765625 2.925781 -0.820312 3.125 -0.9375 C 3.320312 -1.0625 3.472656 -1.222656 3.578125 -1.421875 C 3.691406 -1.628906 3.75 -1.859375 3.75 -2.109375 C 3.75 -2.359375 3.691406 -2.585938 3.578125 -2.796875 C 3.460938 -3.003906 3.304688 -3.164062 3.109375 -3.28125 C 2.910156 -3.40625 2.691406 -3.46875 2.453125 -3.46875 C 2.210938 -3.46875 1.992188 -3.40625 1.796875 -3.28125 C 1.597656 -3.164062 1.441406 -3.003906 1.328125 -2.796875 C 1.210938 -2.585938 1.15625 -2.359375 1.15625 -2.109375 Z M 1.15625 -2.109375 "/></g></g></g><g fill="#ffffff" fill-opacity="1"><g transform="translate(88.417818, 28.687742)"><g><path d="M 2.640625 -0.828125 L 1.234375 -0.828125 L 0.890625 0 L 0.0625 0 L 1.984375 -4.40625 L 2.03125 -4.40625 L 3.9375 0 L 2.96875 0 Z M 2.359375 -1.53125 L 1.953125 -2.5625 L 1.53125 -1.53125 Z M 2.359375 -1.53125 "/></g></g></g><g fill="#ffffff" fill-opacity="1"><g transform="translate(93.007176, 28.687742)"><g><path d="M 1.375 -4.234375 L 1.375 -0.8125 L 3.375 -0.8125 L 3.375 0 L 0.546875 0 L 0.546875 -4.234375 Z M 1.375 -4.234375 "/></g></g></g><g fill="#ffffff" fill-opacity="1"><g transform="translate(97.280264, 28.687742)"><g><path d="M 1.375 -4.234375 L 1.375 0 L 0.546875 0 L 0.546875 -4.234375 Z M 1.375 -4.234375 "/></g></g></g><g fill="#ffffff" fill-opacity="1"><g transform="translate(99.793742, 28.687742)"><g><path d="M 3.109375 -4.234375 L 3.109375 -3.421875 L 2.078125 -3.421875 L 2.078125 0 L 1.25 0 L 1.25 -3.421875 L 0.265625 -3.421875 L 0.265625 -4.234375 Z M 3.109375 -4.234375 "/></g></g></g><g fill="#ffffff" fill-opacity="1"><g transform="translate(103.750564, 28.687742)"><g><path d="M 1.375 -4.234375 L 1.375 0 L 0.546875 0 L 0.546875 -4.234375 Z M 1.375 -4.234375 "/></g></g></g><g fill="#ffffff" fill-opacity="1"><g transform="translate(106.264042, 28.687742)"><g><path d="M 0.28125 -2.109375 C 0.28125 -2.492188 0.378906 -2.851562 0.578125 -3.1875 C 0.773438 -3.519531 1.035156 -3.785156 1.359375 -3.984375 C 1.691406 -4.179688 2.050781 -4.28125 2.4375 -4.28125 C 2.832031 -4.28125 3.191406 -4.179688 3.515625 -3.984375 C 3.847656 -3.785156 4.113281 -3.519531 4.3125 -3.1875 C 4.507812 -2.851562 4.609375 -2.492188 4.609375 -2.109375 C 4.609375 -1.722656 4.507812 -1.363281 4.3125 -1.03125 C 4.113281 -0.695312 3.847656 -0.429688 3.515625 -0.234375 C 3.191406 -0.046875 2.832031 0.046875 2.4375 0.046875 C 2.050781 0.046875 1.691406 -0.046875 1.359375 -0.234375 C 1.035156 -0.429688 0.773438 -0.695312 0.578125 -1.03125 C 0.378906 -1.363281 0.28125 -1.722656 0.28125 -2.109375 Z M 1.15625 -2.109375 C 1.15625 -1.867188 1.210938 -1.644531 1.328125 -1.4375 C 1.441406 -1.226562 1.597656 -1.0625 1.796875 -0.9375 C 2.003906 -0.820312 2.226562 -0.765625 2.46875 -0.765625 C 2.707031 -0.765625 2.925781 -0.820312 3.125 -0.9375 C 3.320312 -1.0625 3.472656 -1.222656 3.578125 -1.421875 C 3.691406 -1.628906 3.75 -1.859375 3.75 -2.109375 C 3.75 -2.359375 3.691406 -2.585938 3.578125 -2.796875 C 3.460938 -3.003906 3.304688 -3.164062 3.109375 -3.28125 C 2.910156 -3.40625 2.691406 -3.46875 2.453125 -3.46875 C 2.210938 -3.46875 1.992188 -3.40625 1.796875 -3.28125 C 1.597656 -3.164062 1.441406 -3.003906 1.328125 -2.796875 C 1.210938 -2.585938 1.15625 -2.359375 1.15625 -2.109375 Z M 1.15625 -2.109375 "/></g></g></g><g fill="#ffffff" fill-opacity="1"><g transform="translate(111.750458, 28.687742)"><g><path d="M 4.359375 -4.234375 L 4.359375 0.171875 L 4.328125 0.171875 L 1.375 -2.5 L 1.390625 0 L 0.546875 0 L 0.546875 -4.40625 L 0.578125 -4.40625 L 3.53125 -1.6875 L 3.515625 -4.234375 Z M 4.359375 -4.234375 "/></g></g></g><g fill="#d9d9d9" fill-opacity="1"><g transform="translate(78.684411, 31.863475)"><g><path d="M 1 -0.8125 C 1.070312 -0.769531 1.128906 -0.71875 1.171875 -0.65625 C 1.222656 -0.601562 1.25 -0.535156 1.25 -0.453125 C 1.25 -0.296875 1.195312 -0.179688 1.09375 -0.109375 C 0.988281 -0.0351562 0.863281 0 0.71875 0 L 0.203125 0 L 0.203125 -1.546875 L 0.65625 -1.546875 C 0.8125 -1.546875 0.9375 -1.507812 1.03125 -1.4375 C 1.125 -1.375 1.171875 -1.28125 1.171875 -1.15625 C 1.171875 -1.070312 1.15625 -1 1.125 -0.9375 C 1.09375 -0.882812 1.050781 -0.84375 1 -0.8125 Z M 0.5 -0.90625 L 0.6875 -0.90625 C 0.738281 -0.90625 0.78125 -0.921875 0.8125 -0.953125 C 0.84375 -0.992188 0.859375 -1.039062 0.859375 -1.09375 C 0.859375 -1.144531 0.84375 -1.179688 0.8125 -1.203125 C 0.78125 -1.234375 0.734375 -1.25 0.671875 -1.25 L 0.5 -1.25 Z M 0.703125 -0.28125 C 0.765625 -0.28125 0.816406 -0.296875 0.859375 -0.328125 C 0.910156 -0.359375 0.9375 -0.398438 0.9375 -0.453125 C 0.9375 -0.566406 0.847656 -0.625 0.671875 -0.625 L 0.5 -0.625 L 0.5 -0.28125 Z M 0.703125 -0.28125 "/></g></g></g><g fill="#d9d9d9" fill-opacity="1"><g transform="translate(80.042544, 31.863475)"><g><path d="M 1.484375 -1.546875 L 0.90625 -0.484375 L 0.90625 0 L 0.59375 0 L 0.59375 -0.484375 L 0.03125 -1.546875 L 0.40625 -1.546875 L 0.765625 -0.828125 L 1.109375 -1.546875 Z M 1.484375 -1.546875 "/></g></g></g><g fill="#d9d9d9" fill-opacity="1"><g transform="translate(81.558113, 31.863475)"><g/></g></g><g fill="#d9d9d9" fill-opacity="1"><g transform="translate(82.240328, 31.863475)"><g><path d="M 0.5 -1.546875 L 0.5 0 L 0.203125 0 L 0.203125 -1.546875 Z M 0.5 -1.546875 "/></g></g></g><g fill="#d9d9d9" fill-opacity="1"><g transform="translate(82.943536, 31.863475)"><g><path d="M 0.671875 -1.546875 C 0.859375 -1.546875 1.003906 -1.5 1.109375 -1.40625 C 1.210938 -1.3125 1.265625 -1.179688 1.265625 -1.015625 C 1.265625 -0.929688 1.242188 -0.847656 1.203125 -0.765625 C 1.171875 -0.679688 1.113281 -0.613281 1.03125 -0.5625 C 0.945312 -0.507812 0.84375 -0.484375 0.71875 -0.484375 L 0.5 -0.484375 L 0.5 0 L 0.203125 0 L 0.203125 -1.546875 Z M 0.71875 -0.78125 C 0.769531 -0.78125 0.8125 -0.789062 0.84375 -0.8125 C 0.882812 -0.84375 0.910156 -0.875 0.921875 -0.90625 C 0.941406 -0.945312 0.953125 -0.984375 0.953125 -1.015625 C 0.953125 -1.066406 0.9375 -1.117188 0.90625 -1.171875 C 0.875 -1.222656 0.8125 -1.25 0.71875 -1.25 L 0.5 -1.25 L 0.5 -0.78125 Z M 0.71875 -0.78125 "/></g></g></g><g fill="#d9d9d9" fill-opacity="1"><g transform="translate(84.278578, 31.863475)"><g><path d="M 1.59375 -1.546875 L 1.59375 0.0625 L 1.578125 0.0625 L 0.5 -0.90625 L 0.5 0 L 0.203125 0 L 0.203125 -1.609375 L 0.21875 -1.609375 L 1.28125 -0.609375 L 1.28125 -1.546875 Z M 1.59375 -1.546875 "/></g></g></g><g fill="#d9d9d9" fill-opacity="1"><g transform="translate(86.069131, 31.863475)"><g/></g></g><g fill="#d9d9d9" fill-opacity="1"><g transform="translate(86.751346, 31.863475)"><g><path d="M 1.125 -1.546875 L 1.125 -1.25 L 0.765625 -1.25 L 0.765625 0 L 0.453125 0 L 0.453125 -1.25 L 0.09375 -1.25 L 0.09375 -1.546875 Z M 1.125 -1.546875 "/></g></g></g><g fill="#d9d9d9" fill-opacity="1"><g transform="translate(87.981432, 31.863475)"><g><path d="M 1.03125 0 L 0.703125 -0.484375 L 0.5 -0.484375 L 0.5 0 L 0.203125 0 L 0.203125 -1.546875 L 0.671875 -1.546875 C 0.859375 -1.546875 1.003906 -1.5 1.109375 -1.40625 C 1.210938 -1.3125 1.265625 -1.179688 1.265625 -1.015625 C 1.265625 -0.921875 1.242188 -0.832031 1.203125 -0.75 C 1.171875 -0.664062 1.113281 -0.601562 1.03125 -0.5625 L 1.390625 0 Z M 0.5 -0.78125 L 0.71875 -0.78125 C 0.800781 -0.78125 0.859375 -0.800781 0.890625 -0.84375 C 0.929688 -0.894531 0.953125 -0.953125 0.953125 -1.015625 C 0.953125 -1.066406 0.9375 -1.117188 0.90625 -1.171875 C 0.875 -1.222656 0.8125 -1.25 0.71875 -1.25 L 0.5 -1.25 Z M 0.5 -0.78125 "/></g></g></g><g fill="#d9d9d9" fill-opacity="1"><g transform="translate(89.421431, 31.863475)"><g><path d="M 0.46875 -0.5625 C 0.46875 -0.519531 0.484375 -0.472656 0.515625 -0.421875 C 0.546875 -0.378906 0.582031 -0.34375 0.625 -0.3125 C 0.675781 -0.289062 0.734375 -0.28125 0.796875 -0.28125 C 0.847656 -0.28125 0.898438 -0.289062 0.953125 -0.3125 C 1.003906 -0.34375 1.039062 -0.378906 1.0625 -0.421875 C 1.09375 -0.472656 1.109375 -0.519531 1.109375 -0.5625 L 1.109375 -1.546875 L 1.421875 -1.546875 L 1.421875 -0.5625 C 1.421875 -0.445312 1.390625 -0.34375 1.328125 -0.25 C 1.273438 -0.164062 1.203125 -0.0976562 1.109375 -0.046875 C 1.015625 -0.00390625 0.910156 0.015625 0.796875 0.015625 C 0.679688 0.015625 0.570312 -0.00390625 0.46875 -0.046875 C 0.375 -0.0976562 0.300781 -0.164062 0.25 -0.25 C 0.195312 -0.34375 0.171875 -0.445312 0.171875 -0.5625 L 0.171875 -1.546875 L 0.46875 -1.546875 Z M 0.46875 -0.5625 "/></g></g></g><g fill="#d9d9d9" fill-opacity="1"><g transform="translate(91.00837, 31.863475)"><g><path d="M 1.015625 -1.171875 C 0.890625 -1.242188 0.773438 -1.28125 0.671875 -1.28125 C 0.609375 -1.28125 0.554688 -1.265625 0.515625 -1.234375 C 0.472656 -1.210938 0.453125 -1.175781 0.453125 -1.125 C 0.453125 -1.070312 0.476562 -1.023438 0.53125 -0.984375 C 0.59375 -0.953125 0.664062 -0.921875 0.75 -0.890625 C 0.820312 -0.859375 0.882812 -0.828125 0.9375 -0.796875 C 0.988281 -0.765625 1.03125 -0.71875 1.0625 -0.65625 C 1.101562 -0.59375 1.125 -0.515625 1.125 -0.421875 C 1.125 -0.347656 1.101562 -0.273438 1.0625 -0.203125 C 1.019531 -0.140625 0.957031 -0.0859375 0.875 -0.046875 C 0.800781 -0.00390625 0.707031 0.015625 0.59375 0.015625 C 0.5 0.015625 0.40625 0.00390625 0.3125 -0.015625 C 0.226562 -0.046875 0.144531 -0.09375 0.0625 -0.15625 L 0.203125 -0.390625 C 0.253906 -0.347656 0.3125 -0.3125 0.375 -0.28125 C 0.445312 -0.257812 0.507812 -0.25 0.5625 -0.25 C 0.625 -0.25 0.679688 -0.257812 0.734375 -0.28125 C 0.785156 -0.3125 0.8125 -0.359375 0.8125 -0.421875 C 0.8125 -0.503906 0.734375 -0.570312 0.578125 -0.625 C 0.492188 -0.664062 0.421875 -0.703125 0.359375 -0.734375 C 0.304688 -0.765625 0.253906 -0.8125 0.203125 -0.875 C 0.160156 -0.9375 0.140625 -1.007812 0.140625 -1.09375 C 0.140625 -1.226562 0.179688 -1.332031 0.265625 -1.40625 C 0.359375 -1.488281 0.476562 -1.535156 0.625 -1.546875 C 0.738281 -1.546875 0.832031 -1.53125 0.90625 -1.5 C 0.988281 -1.476562 1.066406 -1.445312 1.140625 -1.40625 Z M 1.015625 -1.171875 "/></g></g></g><g fill="#d9d9d9" fill-opacity="1"><g transform="translate(92.23216, 31.863475)"><g><path d="M 1.125 -1.546875 L 1.125 -1.25 L 0.765625 -1.25 L 0.765625 0 L 0.453125 0 L 0.453125 -1.25 L 0.09375 -1.25 L 0.09375 -1.546875 Z M 1.125 -1.546875 "/></g></g></g></svg>